<svg width="100%" height="100%" id="svg" viewBox="0 0 1440 400" xmlns="http://www.w3.org/2000/svg" class="transition duration-300 ease-in-out delay-150"><defs><linearGradient id="gradient" x1="50%" y1="100%" x2="50%" y2="0%"><stop offset="5%" stop-color="#EBEDF1"></stop><stop offset="95%" stop-color="#EFF0F3"></stop></linearGradient></defs><path d="M 0,400 C 0,400 0,200 0,200 C 40.456609166877186,212.08228723058312 80.91321833375437,224.16457446116624 112,212 C 143.08678166624563,199.83542553883376 164.80373583185977,163.42398938591813 196,152 C 227.19626416814023,140.57601061408187 267.87183833880664,154.13946799516125 294,188 C 320.12816166119336,221.86053200483875 331.70891081291336,276.01813863343693 367,265 C 402.29108918708664,253.98186136656304 461.29251840953987,177.78797747109095 495,160 C 528.7074815904601,142.21202252890905 537.121015548927,182.82995148219928 558,191 C 578.878984451073,199.17004851780072 612.2234193947519,174.89221660011188 654,189 C 695.7765806052481,203.10778339988812 745.9853068720656,255.60118211735323 781,241 C 816.0146931279344,226.39881788264677 835.8353531169854,144.7030549304752 861,152 C 886.1646468830146,159.2969450695248 916.6732806599936,255.58659816074606 953,271 C 989.3267193400064,286.41340183925394 1031.4715242430407,220.9505524265404 1060,213 C 1088.5284757569593,205.0494475734596 1103.4406223678445,254.61119213309223 1137,254 C 1170.5593776321555,253.38880786690777 1222.7659862855805,202.60467904109055 1257,191 C 1291.2340137144195,179.39532095890945 1307.495432489834,206.97009170254555 1335,215 C 1362.504567510166,223.02990829745445 1401.252283755083,211.5149541487272 1440,200 C 1440,200 1440,400 1440,400 Z" stroke="none" stroke-width="0" fill="url(#gradient)" fill-opacity="1" class="transition-all duration-300 ease-in-out delay-150 path-0" transform="rotate(-180 720 200)"></path></svg>