<?xml version="1.0" encoding="UTF-8"?>
<svg xmlns="http://www.w3.org/2000/svg" xmlns:xlink="http://www.w3.org/1999/xlink" width="32px" height="32px" viewBox="0 0 32 32" version="1.1">
<g id="surface1">
<path style=" stroke:none;fill-rule:nonzero;fill:rgb(98.039216%,82.352941%,30.196078%);fill-opacity:1;" d="M 32 16 C 32 24.835938 24.835938 32 16 32 C 7.164062 32 0 24.835938 0 16 C 0 7.164062 7.164062 0 16 0 C 24.835938 0 32 7.164062 32 16 Z M 32 16 "/>
<path style=" stroke:none;fill-rule:nonzero;fill:rgb(92.941176%,72.54902%,21.568627%);fill-opacity:1;" d="M 27.390625 26.351562 C 27.390625 25.855469 22.292969 25.453125 16 25.453125 C 9.707031 25.453125 4.609375 25.855469 4.609375 26.351562 C 4.609375 26.847656 9.707031 27.25 16 27.25 C 22.292969 27.25 27.390625 26.847656 27.390625 26.351562 Z M 27.390625 26.351562 "/>
<path style=" stroke:none;fill-rule:nonzero;fill:rgb(40%,40%,40%);fill-opacity:1;" d="M 4.125 4.203125 L 27.875 4.203125 C 28.65625 4.203125 29.292969 4.839844 29.292969 5.621094 L 29.292969 20.25 L 2.707031 20.25 L 2.707031 5.621094 C 2.707031 4.839844 3.34375 4.203125 4.125 4.203125 Z M 4.125 4.203125 "/>
<path style=" stroke:none;fill-rule:nonzero;fill:rgb(8.235294%,74.117647%,69.803922%);fill-opacity:1;" d="M 3.667969 19.289062 L 28.332031 19.289062 L 28.332031 5.621094 C 28.332031 5.371094 28.125 5.164062 27.875 5.164062 L 4.125 5.164062 C 3.875 5.164062 3.667969 5.371094 3.667969 5.621094 Z M 3.667969 19.289062 "/>
<path style=" stroke:none;fill-rule:nonzero;fill:rgb(100%,100%,100%);fill-opacity:1;" d="M 29.292969 20.25 L 29.292969 21.804688 C 29.292969 22.585938 28.589844 23.222656 27.730469 23.222656 L 4.269531 23.222656 C 3.410156 23.222656 2.703125 22.585938 2.703125 21.804688 L 2.703125 20.25 Z M 29.292969 20.25 "/>
<path style=" stroke:none;fill-rule:nonzero;fill:rgb(100%,100%,100%);fill-opacity:1;" d="M 9.007812 14.644531 L 8.207031 14.644531 L 8.066406 13.722656 L 7.089844 13.722656 L 6.953125 14.644531 L 6.222656 14.644531 L 7.03125 9.574219 L 8.199219 9.574219 Z M 7.191406 13.035156 L 7.960938 13.035156 L 7.574219 10.472656 Z M 7.191406 13.035156 "/>
<path style=" stroke:none;fill-rule:nonzero;fill:rgb(100%,100%,100%);fill-opacity:1;" d="M 10.550781 9.574219 C 10.953125 9.574219 11.25 9.679688 11.445312 9.890625 C 11.640625 10.105469 11.742188 10.417969 11.742188 10.828125 L 11.742188 11.484375 C 11.742188 11.894531 11.640625 12.207031 11.445312 12.421875 C 11.25 12.632812 10.953125 12.738281 10.550781 12.738281 L 10.175781 12.738281 L 10.175781 14.644531 L 9.378906 14.644531 L 9.378906 9.574219 Z M 10.175781 10.296875 L 10.175781 12.015625 L 10.550781 12.015625 C 10.679688 12.015625 10.773438 11.980469 10.84375 11.914062 C 10.910156 11.84375 10.941406 11.71875 10.941406 11.535156 L 10.941406 10.777344 C 10.941406 10.59375 10.910156 10.46875 10.84375 10.398438 C 10.773438 10.332031 10.679688 10.296875 10.550781 10.296875 Z M 10.175781 10.296875 "/>
<path style=" stroke:none;fill-rule:nonzero;fill:rgb(100%,100%,100%);fill-opacity:1;" d="M 12.109375 9.574219 L 12.90625 9.574219 L 12.90625 14.644531 L 12.109375 14.644531 Z M 12.109375 9.574219 "/>
<path style=" stroke:none;fill-rule:nonzero;fill:rgb(100%,100%,100%);fill-opacity:1;" d="M 22.972656 12.90625 L 23.222656 11.949219 L 22.652344 11.722656 C 22.671875 11.507812 22.671875 11.292969 22.648438 11.078125 L 23.21875 10.847656 L 22.957031 9.894531 L 22.351562 9.984375 C 22.261719 9.789062 22.152344 9.601562 22.023438 9.425781 L 22.402344 8.945312 L 21.695312 8.246094 L 21.21875 8.628906 C 21.039062 8.5 20.851562 8.394531 20.65625 8.308594 L 20.742188 7.703125 L 19.785156 7.449219 L 19.558594 8.019531 C 19.34375 8 19.128906 8 18.914062 8.023438 L 18.683594 7.457031 L 17.730469 7.71875 L 17.820312 8.320312 C 17.625 8.410156 17.4375 8.519531 17.261719 8.648438 L 16.78125 8.273438 L 16.082031 8.976562 L 16.464844 9.453125 C 16.335938 9.632812 16.230469 9.820312 16.144531 10.015625 L 15.539062 9.929688 L 15.285156 10.890625 L 15.855469 11.113281 C 15.835938 11.328125 15.835938 11.542969 15.859375 11.757812 L 15.292969 11.988281 L 15.554688 12.945312 L 16.15625 12.855469 C 16.246094 13.046875 16.355469 13.234375 16.484375 13.410156 L 16.109375 13.894531 L 16.8125 14.589844 L 17.289062 14.210938 C 17.46875 14.335938 17.65625 14.441406 17.851562 14.53125 L 17.765625 15.136719 L 18.726562 15.386719 L 18.949219 14.816406 C 19.164062 14.835938 19.378906 14.835938 19.59375 14.8125 L 19.824219 15.382812 L 20.78125 15.121094 L 20.691406 14.515625 C 20.882812 14.425781 21.070312 14.316406 21.246094 14.1875 L 21.730469 14.566406 L 22.425781 13.859375 L 22.046875 13.382812 C 22.171875 13.203125 22.277344 13.015625 22.367188 12.820312 Z M 20.363281 12.519531 C 19.757812 13.132812 18.769531 13.136719 18.15625 12.527344 C 17.542969 11.921875 17.539062 10.933594 18.144531 10.320312 C 18.75 9.707031 19.742188 9.703125 20.351562 10.308594 C 20.96875 10.914062 20.972656 11.90625 20.363281 12.519531 Z M 20.363281 12.519531 "/>
<path style=" stroke:none;fill-rule:nonzero;fill:rgb(92.54902%,94.117647%,94.509804%);fill-opacity:1;" d="M 19.253906 9.402344 C 18.140625 9.402344 17.238281 10.304688 17.238281 11.417969 C 17.238281 12.53125 18.140625 13.4375 19.253906 13.4375 C 20.367188 13.4375 21.273438 12.53125 21.273438 11.417969 C 21.273438 10.304688 20.367188 9.402344 19.253906 9.402344 Z M 20.363281 12.519531 C 19.757812 13.132812 18.769531 13.136719 18.15625 12.527344 C 17.542969 11.921875 17.539062 10.933594 18.144531 10.320312 C 18.75 9.707031 19.742188 9.703125 20.351562 10.308594 C 20.96875 10.914062 20.972656 11.90625 20.363281 12.519531 Z M 20.363281 12.519531 "/>
<path style=" stroke:none;fill-rule:nonzero;fill:rgb(100%,100%,100%);fill-opacity:1;" d="M 26.066406 15.15625 C 26.074219 15.042969 26.066406 14.925781 26.046875 14.8125 L 26.375 14.625 L 26.003906 13.851562 L 25.652344 13.980469 C 25.574219 13.894531 25.488281 13.816406 25.394531 13.75 L 25.496094 13.386719 L 24.683594 13.101562 L 24.523438 13.441406 C 24.410156 13.433594 24.296875 13.441406 24.183594 13.460938 L 23.996094 13.132812 L 23.222656 13.503906 L 23.347656 13.855469 C 23.261719 13.933594 23.1875 14.019531 23.121094 14.113281 L 22.753906 14.011719 L 22.472656 14.824219 L 22.8125 14.984375 C 22.804688 15.097656 22.808594 15.210938 22.828125 15.324219 L 22.5 15.511719 L 22.871094 16.285156 L 23.226562 16.160156 C 23.304688 16.246094 23.390625 16.320312 23.480469 16.386719 L 23.382812 16.753906 L 24.191406 17.035156 L 24.351562 16.695312 C 24.464844 16.703125 24.578125 16.695312 24.695312 16.679688 L 24.882812 17.007812 L 25.65625 16.632812 L 25.527344 16.28125 C 25.613281 16.203125 25.691406 16.117188 25.757812 16.027344 L 26.121094 16.125 L 26.40625 15.316406 Z M 25.046875 15.671875 C 24.714844 16.003906 24.171875 16.007812 23.835938 15.675781 C 23.503906 15.34375 23.5 14.804688 23.832031 14.46875 C 24.164062 14.132812 24.703125 14.128906 25.039062 14.460938 C 25.375 14.792969 25.378906 15.335938 25.046875 15.671875 Z M 25.046875 15.671875 "/>
<path style=" stroke:none;fill-rule:nonzero;fill:rgb(92.54902%,94.117647%,94.509804%);fill-opacity:1;" d="M 24.4375 13.851562 C 23.765625 13.851562 23.222656 14.398438 23.222656 15.070312 C 23.222656 15.742188 23.765625 16.285156 24.4375 16.285156 C 25.109375 16.285156 25.65625 15.742188 25.65625 15.070312 C 25.65625 14.398438 25.109375 13.851562 24.4375 13.851562 Z M 25.046875 15.671875 C 24.714844 16.003906 24.171875 16.007812 23.835938 15.675781 C 23.503906 15.34375 23.5 14.804688 23.832031 14.46875 C 24.164062 14.132812 24.703125 14.128906 25.039062 14.460938 C 25.375 14.792969 25.378906 15.335938 25.046875 15.671875 Z M 25.046875 15.671875 "/>
<path style=" stroke:none;fill-rule:nonzero;fill:rgb(71.372549%,71.372549%,72.156863%);fill-opacity:1;" d="M 16.488281 21.675781 C 16.488281 21.945312 16.269531 22.164062 16 22.164062 C 15.730469 22.164062 15.511719 21.945312 15.511719 21.675781 C 15.511719 21.40625 15.730469 21.1875 16 21.1875 C 16.269531 21.1875 16.488281 21.40625 16.488281 21.675781 Z M 16.488281 21.675781 "/>
<path style=" stroke:none;fill-rule:nonzero;fill:rgb(76.078431%,76.078431%,76.862745%);fill-opacity:1;" d="M 19.066406 25.453125 L 21.324219 26.175781 L 10.675781 26.175781 L 12.496094 25.453125 L 12.496094 23.222656 L 19.066406 23.222656 Z M 19.066406 25.453125 "/>
<path style=" stroke:none;fill-rule:nonzero;fill:rgb(71.372549%,71.372549%,72.156863%);fill-opacity:1;" d="M 19.066406 25.453125 L 12.496094 23.222656 L 19.066406 23.222656 Z M 19.066406 25.453125 "/>
<path style=" stroke:none;fill-rule:nonzero;fill:rgb(92.54902%,94.117647%,94.509804%);fill-opacity:1;" d="M 12.496094 25.453125 L 19.066406 25.453125 L 21.324219 26.175781 L 21.324219 26.488281 L 10.675781 26.488281 L 10.675781 26.175781 Z M 12.496094 25.453125 "/>
</g>
</svg>
