<?xml version="1.0" encoding="UTF-8"?>
<svg xmlns="http://www.w3.org/2000/svg" xmlns:xlink="http://www.w3.org/1999/xlink" width="32px" height="32px" viewBox="0 0 32 32" version="1.1">
<g id="surface1">
<path style=" stroke:none;fill-rule:nonzero;fill:rgb(0.392157%,0.392157%,0.392157%);fill-opacity:1;" d="M 0 6.835938 L 7.480469 6.835938 L 7.480469 9.035156 L 0 9.035156 Z M 0 2.75 L 7.480469 2.75 L 7.480469 4.949219 L 0 4.949219 Z M 13.421875 10.890625 L 0 10.890625 L 0 13.09375 L 12.917969 13.09375 C 14.335938 13.09375 17.632812 13.125 18.859375 15.105469 L 18.859375 13.878906 C 18.261719 11.929688 16.503906 10.890625 13.421875 10.890625 Z M 13.453125 14.976562 L 0 14.976562 L 0 17.179688 L 12.917969 17.179688 C 16.0625 17.179688 18.042969 17.304688 18.859375 17.742188 L 18.859375 16.769531 C 18.230469 15.230469 15.589844 14.976562 13.453125 14.976562 Z M 13.421875 25.351562 L 0 25.351562 L 0 23.152344 L 12.917969 23.152344 C 14.335938 23.152344 17.632812 23.121094 18.859375 21.140625 L 18.859375 22.363281 C 18.261719 24.3125 16.503906 25.351562 13.421875 25.351562 Z M 13.453125 21.265625 L 0 21.265625 L 0 19.0625 L 12.917969 19.0625 C 16.0625 19.0625 18.042969 18.9375 18.859375 18.5 L 18.859375 19.472656 C 18.230469 21.011719 15.589844 21.265625 13.453125 21.265625 Z M 22.128906 29.15625 L 32 29.15625 L 32 27.804688 L 22.414062 27.804688 C 21.5625 27.804688 19.550781 27.773438 18.828125 26.609375 L 18.828125 27.363281 C 19.175781 28.527344 20.242188 29.15625 22.128906 29.15625 Z M 22.097656 26.671875 L 31.96875 26.671875 L 31.96875 25.320312 L 22.414062 25.320312 C 20.496094 25.320312 19.300781 25.257812 18.828125 24.972656 L 18.828125 25.570312 C 19.207031 26.515625 20.808594 26.671875 22.097656 26.671875 Z M 22.097656 26.671875 "/>
</g>
</svg>
