<?xml version="1.0" encoding="UTF-8"?>
<svg xmlns="http://www.w3.org/2000/svg" xmlns:xlink="http://www.w3.org/1999/xlink" width="32px" height="32px" viewBox="0 0 32 32" version="1.1">
<g id="surface1">
<path style=" stroke:none;fill-rule:nonzero;fill:rgb(33.72549%,23.921569%,48.627451%);fill-opacity:1;" d="M 0 27.875 C 0 30.152344 1.847656 32 4.125 32 L 27.875 32 C 30.152344 32 32 30.152344 32 27.875 L 32 4.125 C 32 1.847656 30.152344 0 27.875 0 L 4.125 0 C 1.847656 0 0 1.847656 0 4.125 Z M 0 27.875 "/>
<path style=" stroke:none;fill-rule:nonzero;fill:rgb(100%,100%,100%);fill-opacity:1;" d="M 13.269531 14.15625 L 13.269531 9.625 L 17.257812 9.625 C 17.636719 9.625 18.003906 9.65625 18.359375 9.71875 C 18.710938 9.78125 19.023438 9.894531 19.292969 10.058594 C 19.566406 10.21875 19.78125 10.445312 19.945312 10.734375 C 20.109375 11.023438 20.1875 11.394531 20.1875 11.847656 C 20.1875 12.664062 19.945312 13.25 19.457031 13.613281 C 18.96875 13.972656 18.34375 14.15625 17.585938 14.15625 Z M 9.007812 6.3125 L 9.007812 25.6875 L 18.398438 25.6875 C 19.265625 25.6875 20.113281 25.578125 20.9375 25.363281 C 21.757812 25.144531 22.492188 24.808594 23.132812 24.359375 C 23.777344 23.90625 24.285156 23.320312 24.667969 22.609375 C 25.046875 21.894531 25.238281 21.046875 25.238281 20.070312 C 25.238281 18.859375 24.941406 17.824219 24.355469 16.964844 C 23.765625 16.105469 22.875 15.503906 21.683594 15.160156 C 22.550781 14.742188 23.207031 14.210938 23.648438 13.558594 C 24.09375 12.90625 24.3125 12.09375 24.3125 11.117188 C 24.3125 10.210938 24.164062 9.453125 23.867188 8.835938 C 23.566406 8.222656 23.148438 7.726562 22.605469 7.355469 C 22.0625 6.988281 21.410156 6.71875 20.652344 6.558594 C 19.890625 6.394531 19.050781 6.3125 18.128906 6.3125 Z M 13.269531 22.375 L 13.269531 17.058594 L 17.910156 17.058594 C 18.832031 17.058594 19.574219 17.269531 20.136719 17.695312 C 20.695312 18.121094 20.976562 18.832031 20.976562 19.824219 C 20.976562 20.332031 20.890625 20.75 20.71875 21.074219 C 20.546875 21.398438 20.316406 21.65625 20.027344 21.847656 C 19.738281 22.039062 19.402344 22.171875 19.023438 22.253906 C 18.644531 22.335938 18.246094 22.375 17.828125 22.375 Z M 13.269531 22.375 "/>
</g>
</svg>
