<?xml version="1.0" encoding="UTF-8"?>
<svg xmlns="http://www.w3.org/2000/svg" xmlns:xlink="http://www.w3.org/1999/xlink" width="32px" height="32px" viewBox="0 0 32 32" version="1.1">
<g id="surface1">
<path style=" stroke:none;fill-rule:nonzero;fill:rgb(8.235294%,44.705882%,71.372549%);fill-opacity:1;" d="M 5.902344 27.199219 L 3.65625 2 L 28.34375 2 L 26.09375 27.195312 L 15.984375 30 Z M 5.902344 27.199219 "/>
<path style=" stroke:none;fill-rule:nonzero;fill:rgb(20%,66.27451%,86.27451%);fill-opacity:1;" d="M 16 27.859375 L 24.171875 25.59375 L 26.09375 4.0625 L 16 4.0625 Z M 16 27.859375 "/>
<path style=" stroke:none;fill-rule:nonzero;fill:rgb(100%,100%,100%);fill-opacity:1;" d="M 16 13.191406 L 20.089844 13.191406 L 20.371094 10.027344 L 16 10.027344 L 16 6.933594 L 23.75 6.933594 L 23.675781 7.765625 L 22.917969 16.28125 L 16 16.28125 Z M 16 13.191406 "/>
<path style=" stroke:none;fill-rule:nonzero;fill:rgb(92.156863%,92.156863%,92.156863%);fill-opacity:1;" d="M 16.019531 21.21875 L 16.003906 21.222656 L 12.5625 20.292969 L 12.34375 17.828125 L 9.238281 17.828125 L 9.671875 22.679688 L 16.003906 24.4375 L 16.019531 24.433594 Z M 16.019531 21.21875 "/>
<path style=" stroke:none;fill-rule:nonzero;fill:rgb(100%,100%,100%);fill-opacity:1;" d="M 19.828125 16.152344 L 19.453125 20.289062 L 16.007812 21.21875 L 16.007812 24.4375 L 22.34375 22.679688 L 22.390625 22.15625 L 22.929688 16.152344 Z M 19.828125 16.152344 "/>
<path style=" stroke:none;fill-rule:nonzero;fill:rgb(92.156863%,92.156863%,92.156863%);fill-opacity:1;" d="M 16.011719 6.933594 L 16.011719 10.027344 L 8.546875 10.027344 L 8.484375 9.332031 L 8.34375 7.765625 L 8.269531 6.933594 Z M 16.011719 6.933594 "/>
<path style=" stroke:none;fill-rule:nonzero;fill:rgb(92.156863%,92.156863%,92.156863%);fill-opacity:1;" d="M 16 13.191406 L 16 16.28125 L 12.601562 16.28125 L 12.539062 15.585938 L 12.398438 14.019531 L 12.324219 13.191406 Z M 16 13.191406 "/>
</g>
</svg>
