<?xml version="1.0" encoding="UTF-8"?>
<svg xmlns="http://www.w3.org/2000/svg" xmlns:xlink="http://www.w3.org/1999/xlink" width="32px" height="32px" viewBox="0 0 32 32" version="1.1">
<g id="surface1">
<path style=" stroke:none;fill-rule:nonzero;fill:rgb(15.686275%,23.921569%,35.686275%);fill-opacity:1;" d="M 21.648438 14.460938 C 21.449219 14.011719 21.242188 13.554688 21.242188 13.050781 C 21.242188 12.625 21.4375 12.273438 21.480469 11.867188 C 21.5 11.707031 21.492188 11.601562 21.320312 11.554688 C 21.144531 11.519531 20.980469 11.523438 20.8125 11.582031 C 20.480469 11.6875 20.101562 11.898438 19.875 12.1875 C 19.863281 12.40625 19.617188 12.613281 19.394531 12.4375 C 18.601562 11.824219 17.417969 11.804688 16.460938 11.84375 C 15.5625 11.882812 14.601562 11.988281 13.742188 12.28125 C 13.695312 12.300781 13.636719 12.304688 13.59375 12.300781 C 13.519531 12.300781 13.4375 12.269531 13.367188 12.207031 C 13.132812 11.976562 12.886719 11.75 12.625 11.550781 C 12.351562 11.34375 11.992188 11.0625 11.636719 11.042969 C 10.9375 11.007812 11.382812 12.28125 11.542969 12.851562 C 11.675781 12.9375 11.742188 13.113281 11.636719 13.28125 C 11.335938 13.730469 10.792969 14.082031 10.605469 14.605469 C 10.425781 15.117188 10.445312 15.648438 10.570312 16.175781 C 10.675781 16.648438 10.863281 17.074219 11.164062 17.460938 C 11.394531 17.761719 11.78125 18.25 12.21875 18.167969 C 12.3125 18.148438 12.394531 18.175781 12.457031 18.21875 C 13.257812 18.335938 13.914062 18.96875 14.101562 19.757812 C 14.3125 20.667969 13.792969 21.460938 12.925781 21.761719 C 12.011719 22.082031 11.167969 21.789062 10.738281 20.925781 C 10.59375 20.644531 10.511719 20.3125 10.332031 20.050781 C 10.210938 19.882812 10.0625 19.8125 9.886719 19.800781 C 10.023438 20.476562 9.949219 21.230469 10.476562 21.742188 C 11.070312 22.320312 11.882812 22.179688 12.632812 22.242188 C 13.195312 22.292969 13.605469 22.601562 13.492188 23.210938 C 13.425781 23.601562 13.269531 23.980469 13.136719 24.355469 C 13.007812 24.738281 12.980469 25.0625 12.976562 25.449219 C 13.070312 25.460938 13.167969 25.480469 13.261719 25.492188 C 15.101562 25.726562 16.960938 25.425781 18.664062 24.710938 C 18.625 24.617188 18.625 24.507812 18.707031 24.398438 C 18.820312 24.25 18.8125 23.992188 18.804688 23.820312 C 18.792969 23.519531 18.75 23.210938 18.675781 22.917969 C 18.554688 22.429688 18.417969 21.894531 18.136719 21.476562 C 17.804688 20.976562 17.332031 20.5 17.25 19.882812 C 17.179688 19.355469 17.460938 18.539062 18.070312 18.480469 C 18.144531 18.476562 18.210938 18.492188 18.261719 18.523438 C 18.851562 18.449219 19.449219 18.351562 20.007812 18.144531 C 20.539062 17.945312 20.96875 17.667969 21.363281 17.261719 C 21.699219 16.914062 21.980469 16.476562 22.011719 15.980469 C 22.042969 15.429688 21.867188 14.945312 21.648438 14.460938 Z M 21.648438 14.460938 "/>
<path style=" stroke:none;fill-rule:nonzero;fill:rgb(83.921569%,89.803922%,89.803922%);fill-opacity:1;" d="M 25.367188 13.917969 C 24.679688 10.855469 22.179688 8.394531 19.21875 7.476562 C 17.820312 7.042969 16.324219 6.894531 14.882812 7.15625 C 13.601562 7.386719 12.4375 7.960938 11.355469 8.675781 C 10.199219 9.445312 9.101562 10.363281 8.273438 11.492188 C 7.695312 12.292969 7.230469 13.261719 7.261719 14.257812 C 7.261719 14.261719 7.257812 14.273438 7.257812 14.28125 C 7.238281 14.632812 7.199219 14.976562 7.167969 15.324219 C 7.136719 15.335938 7.113281 15.34375 7.082031 15.351562 C 7.042969 15.761719 6.980469 16.179688 6.96875 16.601562 C 6.957031 17.039062 6.957031 17.476562 6.980469 17.917969 C 7.023438 18.78125 7.136719 19.644531 7.367188 20.476562 C 7.71875 21.710938 8.304688 22.90625 9.261719 23.789062 C 10.132812 24.585938 11.207031 25.074219 12.335938 25.332031 L 12.335938 25.289062 C 12.335938 25.273438 12.335938 25.257812 12.335938 25.242188 C 12.34375 24.9375 12.367188 24.648438 12.476562 24.335938 C 12.601562 23.949219 12.773438 23.554688 12.851562 23.15625 C 12.886719 22.945312 12.886719 22.914062 12.675781 22.882812 C 12.355469 22.835938 12.023438 22.863281 11.699219 22.84375 C 11.320312 22.820312 10.925781 22.761719 10.582031 22.59375 C 10.230469 22.417969 10 22.179688 9.761719 21.875 C 9.261719 21.226562 9.449219 20.375 9.164062 19.648438 C 9.105469 19.507812 9.195312 19.289062 9.355469 19.25 C 9.988281 19.105469 10.582031 19.226562 10.898438 19.835938 C 11.144531 20.292969 11.273438 21.011719 11.8125 21.226562 C 12.5 21.492188 13.550781 20.949219 13.5 20.148438 C 13.457031 19.445312 12.914062 18.886719 12.210938 18.820312 C 12.179688 18.820312 12.15625 18.8125 12.132812 18.800781 C 11.605469 18.8125 11.144531 18.445312 10.8125 18.050781 C 10.4375 17.605469 10.148438 17.105469 10 16.542969 C 9.824219 15.882812 9.769531 15.210938 9.957031 14.550781 C 10.125 13.957031 10.601562 13.585938 10.960938 13.132812 C 10.875 12.5625 10.601562 12.023438 10.617188 11.4375 C 10.632812 10.988281 10.949219 10.46875 11.4375 10.425781 C 12.300781 10.351562 13.085938 11.0625 13.6875 11.648438 C 14.617188 11.363281 15.617188 11.242188 16.585938 11.21875 C 17.519531 11.195312 18.605469 11.242188 19.445312 11.71875 C 19.742188 11.375 20.199219 11.125 20.617188 10.988281 C 21.054688 10.84375 21.664062 10.855469 21.960938 11.257812 C 22.25 11.632812 22.070312 12.148438 21.945312 12.550781 C 21.761719 13.136719 21.96875 13.65625 22.210938 14.1875 C 22.46875 14.757812 22.695312 15.382812 22.632812 16.019531 C 22.570312 16.601562 22.320312 17.105469 21.9375 17.542969 C 21.507812 18.039062 20.992188 18.429688 20.375 18.664062 C 19.675781 18.925781 18.949219 19.070312 18.210938 19.15625 C 18.15625 19.164062 18.105469 19.15625 18.0625 19.144531 C 18 19.21875 17.914062 19.386719 17.894531 19.449219 C 17.851562 19.574219 17.84375 19.707031 17.867188 19.835938 C 17.925781 20.125 18.113281 20.386719 18.28125 20.617188 C 18.582031 21.03125 18.84375 21.425781 19.019531 21.914062 C 19.207031 22.4375 19.355469 23 19.40625 23.554688 C 19.429688 23.832031 19.4375 24.117188 19.367188 24.386719 C 20.351562 23.898438 21.257812 23.269531 22.054688 22.523438 C 24.386719 20.355469 26.101562 17.175781 25.367188 13.917969 Z M 25.367188 13.917969 "/>
<path style=" stroke:none;fill-rule:nonzero;fill:rgb(83.921569%,89.803922%,89.803922%);fill-opacity:1;" d="M 29.824219 10.757812 C 28.492188 8.042969 25.976562 5.914062 23.3125 4.570312 C 20.644531 3.210938 17.550781 2.5 14.554688 2.976562 C 9.625 3.75 4.851562 7.367188 3.4375 12.21875 C 3.4375 12.273438 3.425781 12.324219 3.394531 12.382812 C 3.367188 12.46875 3.34375 12.5625 3.324219 12.648438 C 3.292969 12.710938 3.261719 12.773438 3.238281 12.84375 C 3.230469 12.898438 3.21875 12.960938 3.210938 13.011719 C 3.15625 13.269531 3.085938 13.523438 3.042969 13.78125 C 2.957031 14.261719 2.976562 14.761719 2.804688 15.21875 C 2.792969 15.351562 2.773438 15.480469 2.757812 15.613281 C 2.757812 15.632812 2.757812 15.644531 2.757812 15.65625 C 2.726562 15.929688 2.699219 16.207031 2.675781 16.480469 C 2.625 17.054688 2.601562 17.632812 2.605469 18.207031 C 2.625 19.335938 2.757812 20.46875 3.039062 21.5625 C 3.582031 23.644531 4.632812 25.613281 6.289062 27.019531 C 7.425781 27.988281 8.757812 28.625 10.1875 29.039062 C 11.75 29.492188 13.375 29.75 15.007812 29.757812 C 18.226562 29.761719 21.457031 28.886719 24.105469 27.023438 C 29.007812 23.574219 32.699219 16.601562 29.824219 10.757812 Z M 15.519531 26.144531 C 12.632812 26.40625 9.460938 25.570312 7.820312 23.011719 C 7.105469 21.90625 6.695312 20.632812 6.5 19.335938 C 6.398438 18.664062 6.34375 17.980469 6.34375 17.300781 C 6.34375 16.945312 6.351562 16.585938 6.367188 16.230469 C 6.394531 15.835938 6.46875 15.449219 6.480469 15.0625 C 6.488281 14.914062 6.582031 14.804688 6.699219 14.761719 C 6.480469 13.4375 7.019531 12.144531 7.8125 11.074219 C 8.75 9.804688 10.011719 8.761719 11.351562 7.9375 C 12.457031 7.257812 13.632812 6.71875 14.925781 6.511719 C 16.363281 6.28125 17.867188 6.398438 19.261719 6.832031 C 22.175781 7.738281 24.769531 9.929688 25.738281 12.886719 C 27.835938 19.289062 21.636719 25.585938 15.519531 26.144531 Z M 15.519531 26.144531 "/>
<path style=" stroke:none;fill-rule:nonzero;fill:rgb(0%,0%,0%);fill-opacity:1;" d="M 14.25 2.394531 C 13.710938 2.488281 13.179688 2.613281 12.65625 2.761719 L 20.417969 2.761719 C 18.414062 2.207031 16.300781 2.039062 14.25 2.394531 Z M 14.25 2.394531 "/>
<path style=" stroke:none;fill-rule:nonzero;fill:rgb(0%,0%,0%);fill-opacity:1;" d="M 29.804688 9.449219 C 28.230469 6.925781 25.6875 4.976562 23.011719 3.726562 C 22.175781 3.335938 21.304688 3.011719 20.414062 2.761719 L 12.65625 2.761719 C 8.148438 4.082031 4.101562 7.585938 2.820312 12.117188 C 2.613281 12.460938 2.582031 12.9375 2.492188 13.320312 C 2.429688 13.585938 2.386719 13.863281 2.351562 14.136719 C 2.34375 14.164062 2.34375 14.195312 2.335938 14.21875 C 2.332031 14.238281 2.324219 14.25 2.324219 14.269531 C 2.273438 14.53125 2.230469 14.792969 2.195312 15.054688 C 2.195312 15.0625 2.1875 15.0625 2.1875 15.070312 C 2.15625 15.144531 2.148438 15.210938 2.164062 15.269531 C 2.101562 15.773438 2.054688 16.28125 2.019531 16.789062 C 1.96875 17.5 1.960938 18.21875 2 18.929688 C 2.082031 20.324219 2.351562 21.710938 2.832031 23.023438 C 3.789062 25.636719 5.675781 27.804688 8.210938 28.980469 C 9.65625 29.644531 11.261719 30.023438 12.832031 30.230469 C 14.425781 30.4375 16.050781 30.425781 17.644531 30.195312 C 20.824219 29.730469 23.800781 28.335938 26.148438 26.144531 C 28.425781 24.023438 30.210938 21.292969 31.03125 18.28125 C 31.855469 15.289062 31.460938 12.101562 29.804688 9.449219 Z M 24.101562 27.03125 C 21.449219 28.894531 18.21875 29.769531 15 29.761719 C 13.375 29.757812 11.75 29.5 10.1875 29.042969 C 8.757812 28.625 7.425781 27.992188 6.289062 27.023438 C 4.632812 25.617188 3.582031 23.648438 3.039062 21.570312 C 2.75 20.476562 2.625 19.34375 2.605469 18.210938 C 2.59375 17.636719 2.617188 17.0625 2.675781 16.488281 C 2.699219 16.210938 2.726562 15.9375 2.757812 15.664062 C 2.757812 15.648438 2.757812 15.632812 2.757812 15.617188 C 2.773438 15.488281 2.792969 15.355469 2.804688 15.226562 C 2.976562 14.769531 2.957031 14.261719 3.042969 13.789062 C 3.09375 13.53125 3.15625 13.273438 3.210938 13.019531 C 3.226562 12.96875 3.230469 12.914062 3.238281 12.851562 C 3.261719 12.789062 3.292969 12.71875 3.324219 12.65625 C 3.351562 12.570312 3.367188 12.476562 3.394531 12.386719 C 3.425781 12.332031 3.445312 12.273438 3.4375 12.226562 C 4.851562 7.367188 9.625 3.75 14.554688 2.976562 C 17.550781 2.5 20.636719 3.210938 23.3125 4.570312 C 25.976562 5.914062 28.488281 8.050781 29.824219 10.757812 C 32.699219 16.601562 29.007812 23.574219 24.101562 27.03125 Z M 24.101562 27.03125 "/>
<path style=" stroke:none;fill-rule:nonzero;fill:rgb(0.392157%,0.392157%,0.392157%);fill-opacity:1;" d="M 25.730469 12.894531 C 24.757812 9.9375 22.167969 7.742188 19.257812 6.835938 C 17.863281 6.40625 16.363281 6.289062 14.917969 6.519531 C 13.625 6.726562 12.449219 7.257812 11.34375 7.945312 C 10.007812 8.769531 8.75 9.820312 7.804688 11.082031 C 7.011719 12.148438 6.476562 13.445312 6.695312 14.769531 C 6.582031 14.8125 6.480469 14.914062 6.476562 15.070312 C 6.460938 15.457031 6.382812 15.851562 6.363281 16.238281 C 6.34375 16.59375 6.335938 16.949219 6.335938 17.304688 C 6.34375 17.988281 6.394531 18.667969 6.492188 19.34375 C 6.6875 20.636719 7.101562 21.914062 7.8125 23.019531 C 9.457031 25.570312 12.625 26.40625 15.511719 26.148438 C 21.636719 25.585938 27.835938 19.289062 25.730469 12.894531 Z M 18.699219 24.394531 C 18.617188 24.5 18.617188 24.613281 18.65625 24.707031 C 16.957031 25.417969 15.09375 25.71875 13.257812 25.488281 C 13.164062 25.476562 13.0625 25.460938 12.96875 25.445312 C 12.976562 25.054688 13 24.730469 13.132812 24.351562 C 13.257812 23.976562 13.414062 23.59375 13.488281 23.207031 C 13.601562 22.59375 13.179688 22.289062 12.625 22.238281 C 11.867188 22.175781 11.0625 22.304688 10.46875 21.738281 C 9.9375 21.230469 10.019531 20.46875 9.882812 19.792969 C 10.054688 19.800781 10.207031 19.867188 10.324219 20.042969 C 10.507812 20.304688 10.59375 20.632812 10.730469 20.917969 C 11.164062 21.789062 12.007812 22.074219 12.917969 21.757812 C 13.78125 21.457031 14.304688 20.664062 14.09375 19.75 C 13.90625 18.960938 13.25 18.332031 12.449219 18.210938 C 12.386719 18.167969 12.3125 18.144531 12.210938 18.164062 C 11.773438 18.242188 11.394531 17.757812 11.15625 17.457031 C 10.855469 17.070312 10.675781 16.644531 10.5625 16.167969 C 10.445312 15.644531 10.417969 15.113281 10.601562 14.601562 C 10.789062 14.074219 11.332031 13.730469 11.632812 13.273438 C 11.742188 13.105469 11.667969 12.929688 11.539062 12.84375 C 11.375 12.269531 10.929688 11 11.632812 11.039062 C 11.992188 11.054688 12.351562 11.335938 12.617188 11.542969 C 12.882812 11.742188 13.132812 11.96875 13.363281 12.199219 C 13.429688 12.269531 13.507812 12.292969 13.585938 12.292969 C 13.636719 12.300781 13.6875 12.292969 13.738281 12.273438 C 14.59375 11.980469 15.554688 11.867188 16.457031 11.835938 C 17.414062 11.800781 18.59375 11.820312 19.386719 12.429688 C 19.613281 12.605469 19.855469 12.398438 19.867188 12.179688 C 20.09375 11.894531 20.46875 11.679688 20.804688 11.574219 C 20.980469 11.519531 21.136719 11.511719 21.3125 11.550781 C 21.492188 11.585938 21.492188 11.699219 21.476562 11.863281 C 21.429688 12.269531 21.238281 12.617188 21.238281 13.042969 C 21.238281 13.542969 21.4375 14.007812 21.644531 14.457031 C 21.863281 14.9375 22.039062 15.429688 22 15.960938 C 21.96875 16.460938 21.6875 16.894531 21.351562 17.242188 C 20.957031 17.648438 20.523438 17.929688 19.992188 18.125 C 19.4375 18.332031 18.835938 18.4375 18.25 18.507812 C 18.199219 18.476562 18.136719 18.457031 18.054688 18.460938 C 17.449219 18.519531 17.167969 19.335938 17.238281 19.863281 C 17.320312 20.480469 17.792969 20.957031 18.125 21.457031 C 18.40625 21.875 18.542969 22.414062 18.664062 22.898438 C 18.730469 23.195312 18.773438 23.492188 18.792969 23.800781 C 18.8125 23.988281 18.820312 24.242188 18.699219 24.394531 Z M 22.0625 22.519531 C 21.261719 23.261719 20.351562 23.894531 19.375 24.382812 C 19.445312 24.113281 19.4375 23.824219 19.414062 23.550781 C 19.363281 22.992188 19.210938 22.429688 19.023438 21.90625 C 18.851562 21.417969 18.585938 21.03125 18.289062 20.613281 C 18.117188 20.375 17.929688 20.117188 17.875 19.832031 C 17.851562 19.699219 17.855469 19.570312 17.898438 19.445312 C 17.917969 19.382812 18.007812 19.210938 18.070312 19.136719 C 18.113281 19.148438 18.164062 19.164062 18.21875 19.148438 C 18.957031 19.0625 19.679688 18.917969 20.382812 18.65625 C 21 18.425781 21.507812 18.03125 21.945312 17.539062 C 22.324219 17.101562 22.582031 16.59375 22.636719 16.011719 C 22.699219 15.375 22.476562 14.75 22.21875 14.179688 C 21.980469 13.644531 21.769531 13.132812 21.949219 12.542969 C 22.074219 12.144531 22.257812 11.625 21.96875 11.25 C 21.667969 10.851562 21.0625 10.835938 20.625 10.980469 C 20.207031 11.117188 19.75 11.367188 19.449219 11.710938 C 18.613281 11.230469 17.523438 11.1875 16.59375 11.210938 C 15.625 11.238281 14.625 11.351562 13.695312 11.644531 C 13.09375 11.054688 12.304688 10.34375 11.445312 10.417969 C 10.957031 10.460938 10.636719 10.988281 10.625 11.429688 C 10.605469 12.011719 10.882812 12.554688 10.96875 13.125 C 10.605469 13.582031 10.132812 13.957031 9.960938 14.542969 C 9.773438 15.207031 9.832031 15.875 10.007812 16.539062 C 10.15625 17.101562 10.445312 17.601562 10.820312 18.042969 C 11.148438 18.4375 11.613281 18.804688 12.136719 18.792969 C 12.164062 18.800781 12.1875 18.804688 12.21875 18.8125 C 12.917969 18.882812 13.460938 19.429688 13.507812 20.144531 C 13.554688 20.9375 12.5 21.480469 11.820312 21.21875 C 11.28125 21.007812 11.144531 20.292969 10.90625 19.832031 C 10.585938 19.21875 9.992188 19.101562 9.363281 19.242188 C 9.199219 19.28125 9.113281 19.492188 9.167969 19.644531 C 9.457031 20.367188 9.261719 21.21875 9.769531 21.867188 C 10.007812 22.175781 10.238281 22.414062 10.585938 22.585938 C 10.929688 22.757812 11.324219 22.8125 11.707031 22.835938 C 12.03125 22.855469 12.355469 22.832031 12.679688 22.875 C 12.894531 22.90625 12.894531 22.9375 12.855469 23.148438 C 12.78125 23.550781 12.605469 23.945312 12.480469 24.332031 C 12.382812 24.644531 12.351562 24.929688 12.34375 25.238281 C 12.34375 25.25 12.34375 25.269531 12.34375 25.28125 L 12.34375 25.324219 C 11.207031 25.070312 10.136719 24.582031 9.269531 23.78125 C 8.3125 22.898438 7.71875 21.707031 7.375 20.46875 C 7.144531 19.636719 7.03125 18.773438 6.988281 17.914062 C 6.960938 17.476562 6.960938 17.039062 6.976562 16.59375 C 6.988281 16.175781 7.050781 15.761719 7.085938 15.34375 C 7.117188 15.335938 7.148438 15.332031 7.175781 15.320312 C 7.207031 14.96875 7.242188 14.625 7.261719 14.273438 C 7.261719 14.269531 7.261719 14.257812 7.269531 14.25 C 7.238281 13.257812 7.699219 12.292969 8.28125 11.488281 C 9.101562 10.355469 10.199219 9.4375 11.363281 8.667969 C 12.4375 7.957031 13.605469 7.382812 14.886719 7.148438 C 16.335938 6.886719 17.824219 7.039062 19.226562 7.46875 C 22.1875 8.386719 24.6875 10.851562 25.375 13.914062 C 26.101562 17.175781 24.386719 20.355469 22.0625 22.519531 Z M 22.0625 22.519531 "/>
</g>
</svg>
