<?xml version="1.0" encoding="UTF-8"?>
<svg xmlns="http://www.w3.org/2000/svg" xmlns:xlink="http://www.w3.org/1999/xlink" width="32px" height="32px" viewBox="0 0 32 32" version="1.1">
<g id="surface1">
<path style=" stroke:none;fill-rule:nonzero;fill:rgb(89.411765%,30.980392%,14.901961%);fill-opacity:1;" d="M 5.902344 27.199219 L 3.65625 2 L 28.34375 2 L 26.09375 27.195312 L 15.984375 30 Z M 5.902344 27.199219 "/>
<path style=" stroke:none;fill-rule:nonzero;fill:rgb(94.509804%,40%,16.470588%);fill-opacity:1;" d="M 16 27.859375 L 24.171875 25.59375 L 26.09375 4.0625 L 16 4.0625 Z M 16 27.859375 "/>
<path style=" stroke:none;fill-rule:nonzero;fill:rgb(92.156863%,92.156863%,92.156863%);fill-opacity:1;" d="M 16 13.40625 L 11.910156 13.40625 L 11.628906 10.242188 L 16 10.242188 L 16 7.152344 L 8.25 7.152344 L 8.324219 7.980469 L 9.082031 16.496094 L 16 16.496094 Z M 16 13.40625 "/>
<path style=" stroke:none;fill-rule:nonzero;fill:rgb(92.156863%,92.156863%,92.156863%);fill-opacity:1;" d="M 16 21.433594 L 15.984375 21.4375 L 12.542969 20.507812 L 12.324219 18.042969 L 9.222656 18.042969 L 9.652344 22.894531 L 15.984375 24.652344 L 16 24.648438 Z M 16 21.433594 "/>
<path style=" stroke:none;fill-rule:nonzero;fill:rgb(100%,100%,100%);fill-opacity:1;" d="M 15.988281 13.40625 L 15.988281 16.496094 L 19.796875 16.496094 L 19.4375 20.507812 L 15.988281 21.4375 L 15.988281 24.652344 L 22.324219 22.894531 L 22.371094 22.375 L 23.097656 14.238281 L 23.175781 13.40625 Z M 15.988281 13.40625 "/>
<path style=" stroke:none;fill-rule:nonzero;fill:rgb(100%,100%,100%);fill-opacity:1;" d="M 15.988281 7.152344 L 15.988281 10.242188 L 23.453125 10.242188 L 23.515625 9.546875 L 23.65625 7.980469 L 23.730469 7.152344 Z M 15.988281 7.152344 "/>
</g>
</svg>
