<?xml version="1.0" encoding="UTF-8"?>
<svg xmlns="http://www.w3.org/2000/svg" xmlns:xlink="http://www.w3.org/1999/xlink" width="32px" height="32px" viewBox="0 0 32 32" version="1.1">
<g id="surface1">
<path style=" stroke:none;fill-rule:nonzero;fill:red;fill-opacity:1;" d="M 29.714844 0 L 26.667969 0 C 25.40625 0 24.382812 1.023438 24.382812 2.285156 L 24.382812 5.332031 C 24.382812 6.59375 25.40625 7.617188 26.667969 7.617188 L 29.714844 7.617188 C 30.976562 7.617188 32 6.59375 32 5.332031 L 32 2.285156 C 32 1.023438 30.976562 0 29.714844 0 Z M 29.714844 0 "/>
<path style=" stroke:none;fill-rule:nonzero;fill:red;fill-opacity:1;" d="M 17.523438 0 L 14.476562 0 C 13.214844 0 12.191406 1.023438 12.191406 2.285156 L 12.191406 5.332031 C 12.191406 6.59375 13.214844 7.617188 14.476562 7.617188 L 17.523438 7.617188 C 18.785156 7.617188 19.808594 6.59375 19.808594 5.332031 L 19.808594 2.285156 C 19.808594 1.023438 18.785156 0 17.523438 0 Z M 17.523438 0 "/>
<path style=" stroke:none;fill-rule:nonzero;fill:red;fill-opacity:1;" d="M 5.332031 0 L 2.285156 0 C 1.023438 0 0 1.023438 0 2.285156 L 0 5.332031 C 0 6.59375 1.023438 7.617188 2.285156 7.617188 L 5.332031 7.617188 C 6.59375 7.617188 7.617188 6.59375 7.617188 5.332031 L 7.617188 2.285156 C 7.617188 1.023438 6.59375 0 5.332031 0 Z M 5.332031 0 "/>
<path style=" stroke:none;fill-rule:nonzero;fill:red;fill-opacity:1;" d="M 29.714844 24.382812 L 26.667969 24.382812 C 25.40625 24.382812 24.382812 25.40625 24.382812 26.667969 L 24.382812 29.714844 C 24.382812 30.976562 25.40625 32 26.667969 32 L 29.714844 32 C 30.976562 32 32 30.976562 32 29.714844 L 32 26.667969 C 32 25.40625 30.976562 24.382812 29.714844 24.382812 Z M 29.714844 24.382812 "/>
<path style=" stroke:none;fill-rule:nonzero;fill:red;fill-opacity:1;" d="M 17.523438 24.382812 L 14.476562 24.382812 C 13.214844 24.382812 12.191406 25.40625 12.191406 26.667969 L 12.191406 29.714844 C 12.191406 30.976562 13.214844 32 14.476562 32 L 17.523438 32 C 18.785156 32 19.808594 30.976562 19.808594 29.714844 L 19.808594 26.667969 C 19.808594 25.40625 18.785156 24.382812 17.523438 24.382812 Z M 17.523438 24.382812 "/>
<path style=" stroke:none;fill-rule:nonzero;fill:red;fill-opacity:1;" d="M 5.332031 24.382812 L 2.285156 24.382812 C 1.023438 24.382812 0 25.40625 0 26.667969 L 0 29.714844 C 0 30.976562 1.023438 32 2.285156 32 L 5.332031 32 C 6.59375 32 7.617188 30.976562 7.617188 29.714844 L 7.617188 26.667969 C 7.617188 25.40625 6.59375 24.382812 5.332031 24.382812 Z M 5.332031 24.382812 "/>
<path style=" stroke:none;fill-rule:nonzero;fill:red;fill-opacity:1;" d="M 29.714844 12.191406 L 26.667969 12.191406 C 25.40625 12.191406 24.382812 13.214844 24.382812 14.476562 L 24.382812 17.523438 C 24.382812 18.785156 25.40625 19.808594 26.667969 19.808594 L 29.714844 19.808594 C 30.976562 19.808594 32 18.785156 32 17.523438 L 32 14.476562 C 32 13.214844 30.976562 12.191406 29.714844 12.191406 Z M 29.714844 12.191406 "/>
<path style=" stroke:none;fill-rule:nonzero;fill:red;fill-opacity:1;" d="M 17.523438 12.191406 L 14.476562 12.191406 C 13.214844 12.191406 12.191406 13.214844 12.191406 14.476562 L 12.191406 17.523438 C 12.191406 18.785156 13.214844 19.808594 14.476562 19.808594 L 17.523438 19.808594 C 18.785156 19.808594 19.808594 18.785156 19.808594 17.523438 L 19.808594 14.476562 C 19.808594 13.214844 18.785156 12.191406 17.523438 12.191406 Z M 17.523438 12.191406 "/>
<path style=" stroke:none;fill-rule:nonzero;fill:red;fill-opacity:1;" d="M 5.332031 12.191406 L 2.285156 12.191406 C 1.023438 12.191406 0 13.214844 0 14.476562 L 0 17.523438 C 0 18.785156 1.023438 19.808594 2.285156 19.808594 L 5.332031 19.808594 C 6.59375 19.808594 7.617188 18.785156 7.617188 17.523438 L 7.617188 14.476562 C 7.617188 13.214844 6.59375 12.191406 5.332031 12.191406 Z M 5.332031 12.191406 "/>
</g>
</svg>
