<?xml version="1.0" encoding="UTF-8"?>
<svg xmlns="http://www.w3.org/2000/svg" xmlns:xlink="http://www.w3.org/1999/xlink" width="32px" height="32px" viewBox="0 0 32 32" version="1.1">
<g id="surface1">
<path style=" stroke:none;fill-rule:nonzero;fill:rgb(15.294118%,20.392157%,41.568627%);fill-opacity:1;" d="M 25.449219 2.492188 C 23.972656 0.808594 21.304688 0.0859375 17.886719 0.0859375 L 7.980469 0.0859375 C 7.28125 0.0859375 6.6875 0.59375 6.578125 1.285156 L 2.453125 27.453125 C 2.371094 27.96875 2.769531 28.433594 3.292969 28.433594 L 9.410156 28.433594 L 10.945312 18.691406 L 10.898438 18.996094 C 11.007812 18.304688 11.597656 17.796875 12.292969 17.796875 L 15.203125 17.796875 C 20.914062 17.796875 25.386719 15.476562 26.691406 8.769531 C 26.730469 8.570312 26.761719 8.375 26.792969 8.1875 C 26.628906 8.101562 26.628906 8.101562 26.792969 8.1875 C 27.179688 5.707031 26.789062 4.019531 25.449219 2.492188 "/>
<path style=" stroke:none;fill-rule:nonzero;fill:rgb(15.294118%,20.392157%,41.568627%);fill-opacity:1;" d="M 13.285156 7.292969 C 13.449219 7.214844 13.632812 7.171875 13.824219 7.171875 L 21.589844 7.171875 C 22.511719 7.171875 23.371094 7.234375 24.152344 7.359375 C 24.378906 7.394531 24.597656 7.4375 24.808594 7.484375 C 25.019531 7.53125 25.226562 7.585938 25.425781 7.644531 C 25.523438 7.671875 25.621094 7.703125 25.71875 7.734375 C 26.105469 7.863281 26.460938 8.011719 26.792969 8.1875 C 27.179688 5.707031 26.789062 4.019531 25.449219 2.492188 C 23.972656 0.808594 21.304688 0.0859375 17.886719 0.0859375 L 7.976562 0.0859375 C 7.28125 0.0859375 6.6875 0.59375 6.578125 1.285156 L 2.453125 27.449219 C 2.371094 27.96875 2.769531 28.433594 3.292969 28.433594 L 9.410156 28.433594 L 12.597656 8.21875 C 12.664062 7.804688 12.929688 7.464844 13.285156 7.292969 Z M 13.285156 7.292969 "/>
<path style=" stroke:none;fill-rule:nonzero;fill:rgb(15.294118%,56.470588%,76.470588%);fill-opacity:1;" d="M 26.691406 8.769531 C 25.386719 15.476562 20.914062 17.796875 15.203125 17.796875 L 12.292969 17.796875 C 11.597656 17.796875 11.007812 18.304688 10.898438 18.996094 L 8.988281 31.113281 C 8.914062 31.5625 9.265625 31.972656 9.722656 31.972656 L 14.878906 31.972656 C 15.488281 31.972656 16.007812 31.527344 16.105469 30.925781 L 16.15625 30.664062 L 17.125 24.503906 L 17.1875 24.164062 C 17.285156 23.558594 17.804688 23.117188 18.414062 23.117188 L 19.1875 23.117188 C 24.183594 23.117188 28.09375 21.085938 29.238281 15.214844 C 29.714844 12.761719 29.464844 10.714844 28.203125 9.277344 C 27.820312 8.839844 27.347656 8.480469 26.792969 8.1875 C 26.761719 8.378906 26.730469 8.570312 26.691406 8.769531 Z M 26.691406 8.769531 "/>
<path style=" stroke:none;fill-rule:nonzero;fill:rgb(12.156863%,14.901961%,30.980392%);fill-opacity:1;" d="M 25.425781 7.644531 C 25.226562 7.585938 25.019531 7.53125 24.808594 7.484375 C 24.597656 7.4375 24.378906 7.398438 24.15625 7.359375 C 23.371094 7.234375 22.511719 7.171875 21.589844 7.171875 L 13.824219 7.171875 C 13.632812 7.171875 13.449219 7.214844 13.289062 7.296875 C 12.929688 7.46875 12.664062 7.804688 12.597656 8.222656 L 10.945312 18.691406 L 10.898438 18.996094 C 11.007812 18.304688 11.597656 17.796875 12.292969 17.796875 L 15.203125 17.796875 C 20.914062 17.796875 25.386719 15.476562 26.691406 8.769531 C 26.730469 8.570312 26.761719 8.378906 26.792969 8.1875 C 26.460938 8.011719 26.105469 7.863281 25.71875 7.734375 C 25.621094 7.703125 25.523438 7.671875 25.425781 7.644531 "/>
</g>
</svg>
