<?xml version="1.0" encoding="UTF-8"?>
<svg xmlns="http://www.w3.org/2000/svg" xmlns:xlink="http://www.w3.org/1999/xlink" width="32px" height="32px" viewBox="0 0 32 32" version="1.1">
<defs>
<linearGradient id="linear0" gradientUnits="userSpaceOnUse" x1="5.501" y1="16" x2="26.5" y2="16" >
<stop offset="0.08" style="stop-color:rgb(66.666667%,13.333333%,21.568627%);stop-opacity:1;"/>
<stop offset="0.982" style="stop-color:rgb(70.588235%,19.215686%,23.921569%);stop-opacity:1;"/>
</linearGradient>
<linearGradient id="linear1" gradientUnits="userSpaceOnUse" x1="10.099" y1="5.601" x2="16.169" y2="5.601" >
<stop offset="0.037" style="stop-color:rgb(72.156863%,22.745098%,25.490196%);stop-opacity:1;"/>
<stop offset="0.896" style="stop-color:rgb(74.901961%,29.019608%,31.372549%);stop-opacity:1;"/>
</linearGradient>
<linearGradient id="linear2" gradientUnits="userSpaceOnUse" x1="7.851" y1="20.836" x2="7.851" y2="14.698" >
<stop offset="0.037" style="stop-color:rgb(66.27451%,13.333333%,21.568627%);stop-opacity:1;"/>
<stop offset="0.939" style="stop-color:rgb(59.215686%,13.333333%,20.784314%);stop-opacity:1;"/>
</linearGradient>
<linearGradient id="linear3" gradientUnits="userSpaceOnUse" x1="13.133" y1="29.442" x2="13.133" y2="20.836" >
<stop offset="0.037" style="stop-color:rgb(73.72549%,25.882353%,27.058824%);stop-opacity:1;"/>
<stop offset="0.939" style="stop-color:rgb(64.313725%,12.941176%,21.176471%);stop-opacity:1;"/>
</linearGradient>
<linearGradient id="linear4" gradientUnits="userSpaceOnUse" x1="19.212" y1="8.696" x2="19.212" y2="2.575" >
<stop offset="0.037" style="stop-color:rgb(80%,31.372549%,34.117647%);stop-opacity:1;"/>
<stop offset="0.896" style="stop-color:rgb(71.764706%,21.960784%,25.098039%);stop-opacity:1;"/>
</linearGradient>
<linearGradient id="linear5" gradientUnits="userSpaceOnUse" x1="21.776" y1="7.866" x2="24.376" y2="6.365" >
<stop offset="0.08" style="stop-color:rgb(83.137255%,34.117647%,37.254902%);stop-opacity:1;"/>
<stop offset="0.945" style="stop-color:rgb(71.372549%,20.784314%,25.098039%);stop-opacity:1;"/>
</linearGradient>
<linearGradient id="linear6" gradientUnits="userSpaceOnUse" x1="22.256" y1="11.733" x2="26.484" y2="11.733" >
<stop offset="0" style="stop-color:rgb(75.294118%,29.411765%,31.764706%);stop-opacity:1;"/>
<stop offset="1" style="stop-color:rgb(72.156863%,22.745098%,25.490196%);stop-opacity:1;"/>
</linearGradient>
<linearGradient id="linear7" gradientUnits="userSpaceOnUse" x1="22.239" y1="17.79" x2="26.475" y2="17.79" >
<stop offset="0" style="stop-color:rgb(72.941176%,25.098039%,26.666667%);stop-opacity:1;"/>
<stop offset="1" style="stop-color:rgb(70.588235%,18.823529%,23.529412%);stop-opacity:1;"/>
</linearGradient>
<linearGradient id="linear8" gradientUnits="userSpaceOnUse" x1="21.349" y1="23.257" x2="24.603" y2="24.442" >
<stop offset="0" style="stop-color:rgb(59.215686%,12.941176%,21.176471%);stop-opacity:1;"/>
<stop offset="1" style="stop-color:rgb(62.352941%,13.333333%,21.176471%);stop-opacity:1;"/>
</linearGradient>
<linearGradient id="linear9" gradientUnits="userSpaceOnUse" x1="18.562" y1="21.3" x2="24.103" y2="27.904" >
<stop offset="0.037" style="stop-color:rgb(69.803922%,17.254902%,22.745098%);stop-opacity:1;"/>
<stop offset="0.939" style="stop-color:rgb(75.294118%,30.196078%,32.54902%);stop-opacity:1;"/>
</linearGradient>
<linearGradient id="linear10" gradientUnits="userSpaceOnUse" x1="16.199" y1="29.443" x2="16.199" y2="23.313" >
<stop offset="0.037" style="stop-color:rgb(69.803922%,17.254902%,22.745098%);stop-opacity:1;"/>
<stop offset="0.939" style="stop-color:rgb(60.784314%,12.941176%,20.784314%);stop-opacity:1;"/>
</linearGradient>
<linearGradient id="linear11" gradientUnits="userSpaceOnUse" x1="22.221" y1="6.635" x2="25.29" y2="6.635" >
<stop offset="0.037" style="stop-color:rgb(100%,100%,100%);stop-opacity:1;"/>
<stop offset="0.742" style="stop-color:rgb(95.686275%,90.196078%,85.098039%);stop-opacity:1;"/>
</linearGradient>
<linearGradient id="linear12" gradientUnits="userSpaceOnUse" x1="17.162" y1="4.552" x2="22.113" y2="7.411" >
<stop offset="0.037" style="stop-color:rgb(100%,100%,100%);stop-opacity:1;"/>
<stop offset="0.896" style="stop-color:rgb(95.686275%,90.196078%,85.098039%);stop-opacity:1;"/>
</linearGradient>
</defs>
<g id="surface1">
<path style=" stroke:none;fill-rule:nonzero;fill:rgb(50.196078%,8.235294%,16.470588%);fill-opacity:1;" d="M 27.007812 26.835938 C 27.007812 28.582031 25.589844 30 23.84375 30 L 4.992188 30 L 4.992188 5.164062 C 4.992188 3.417969 6.410156 2 8.15625 2 L 27.007812 2 Z M 27.007812 26.835938 "/>
<path style=" stroke:none;fill-rule:nonzero;fill:url(#linear0);" d="M 26.5 26.539062 C 26.519531 27.324219 26.214844 28.085938 25.660156 28.640625 C 25.101562 29.199219 24.339844 29.503906 23.554688 29.484375 L 5.5 29.484375 L 5.5 5.460938 C 5.480469 4.675781 5.785156 3.914062 6.34375 3.359375 C 6.898438 2.800781 7.660156 2.496094 8.445312 2.515625 L 26.5 2.515625 Z M 26.5 26.539062 "/>
<path style=" stroke:none;fill-rule:nonzero;fill:rgb(54.117647%,12.54902%,20.392157%);fill-opacity:1;" d="M 10.097656 2.539062 L 10.167969 8.660156 L 5.617188 10.183594 Z M 10.097656 2.539062 "/>
<path style=" stroke:none;fill-rule:nonzero;fill:url(#linear1);" d="M 10.097656 2.539062 L 10.167969 8.660156 L 16.167969 6.160156 Z M 10.097656 2.539062 "/>
<path style=" stroke:none;fill-rule:nonzero;fill:rgb(68.235294%,13.72549%,21.960784%);fill-opacity:1;" d="M 7.613281 14.699219 L 10.167969 8.660156 L 5.617188 10.183594 Z M 7.613281 14.699219 "/>
<path style=" stroke:none;fill-rule:nonzero;fill:url(#linear2);" d="M 7.613281 14.699219 L 10.132812 20.835938 L 5.566406 19.363281 Z M 7.613281 14.699219 "/>
<path style=" stroke:none;fill-rule:nonzero;fill:rgb(54.117647%,12.54902%,20.392157%);fill-opacity:1;" d="M 10.109375 29.441406 L 10.132812 20.835938 L 5.566406 19.363281 Z M 10.109375 29.441406 "/>
<path style=" stroke:none;fill-rule:nonzero;fill:rgb(54.901961%,12.54902%,20%);fill-opacity:1;" d="M 10.109375 29.441406 L 5.566406 29.441406 L 5.566406 19.363281 Z M 10.109375 29.441406 "/>
<path style=" stroke:none;fill-rule:nonzero;fill:url(#linear3);" d="M 10.109375 29.441406 L 10.132812 20.835938 L 16.15625 23.316406 Z M 10.109375 29.441406 "/>
<path style=" stroke:none;fill-rule:nonzero;fill:url(#linear4);" d="M 22.1875 2.574219 L 22.257812 8.695312 L 16.167969 6.160156 Z M 22.1875 2.574219 "/>
<path style=" stroke:none;fill-rule:nonzero;fill:url(#linear5);" d="M 22.1875 2.574219 L 22.257812 8.695312 L 26.484375 10.199219 Z M 22.1875 2.574219 "/>
<path style=" stroke:none;fill-rule:nonzero;fill:url(#linear6);" d="M 24.738281 14.769531 L 22.257812 8.695312 L 26.484375 10.199219 Z M 24.738281 14.769531 "/>
<path style=" stroke:none;fill-rule:nonzero;fill:url(#linear7);" d="M 24.738281 14.769531 L 22.238281 20.808594 L 26.476562 19.296875 Z M 24.738281 14.769531 "/>
<path style=" stroke:none;fill-rule:nonzero;fill:url(#linear8);" d="M 22.289062 29.425781 L 22.238281 20.808594 L 26.476562 19.296875 Z M 22.289062 29.425781 "/>
<path style=" stroke:none;fill-rule:nonzero;fill:url(#linear9);" d="M 22.289062 29.425781 L 22.238281 20.808594 L 16.160156 23.3125 Z M 22.289062 29.425781 "/>
<path style=" stroke:none;fill-rule:nonzero;fill:url(#linear10);" d="M 22.289062 29.425781 L 10.109375 29.441406 L 16.160156 23.3125 Z M 22.289062 29.425781 "/>
<path style=" stroke:none;fill-rule:nonzero;fill:rgb(96.862745%,87.058824%,88.235294%);fill-opacity:1;" d="M 16.785156 16.578125 L 18.15625 17.203125 L 18.015625 16.230469 L 16.769531 15.558594 Z M 6.398438 19.847656 L 8.183594 20.046875 L 8.574219 18.390625 L 6.863281 18.089844 Z M 12.746094 8.367188 L 11.574219 7.5 L 10.761719 8.601562 L 12.042969 9.398438 Z M 16.320312 5.46875 L 15.574219 4.492188 L 14.519531 5.113281 L 15.394531 6.0625 Z M 20.175781 4.78125 L 19.933594 3.980469 L 18.667969 3.882812 L 19.035156 4.757812 Z M 24.464844 5.78125 L 23.398438 5.019531 L 23.398438 5.515625 L 24.425781 6.148438 Z M 10.066406 12.867188 L 8.605469 12.234375 L 8.113281 13.679688 L 9.613281 14.238281 Z M 17.324219 12.214844 L 17.066406 13.109375 L 18.003906 13.972656 L 18.238281 13.140625 Z M 23.316406 8.214844 L 24.097656 8.253906 L 24.105469 7.890625 L 23.292969 7.726562 Z M 20.074219 5.199219 C 16.324219 5.015625 9.609375 8.570312 8.644531 22.832031 L 17.84375 22.832031 C 15.78125 17.488281 16.023438 13.457031 17.441406 10.726562 C 19.503906 6.753906 22.570312 6.488281 25.441406 8.164062 C 25.539062 7.921875 25.679688 7.617188 25.679688 7.617188 C 24.21875 6.085938 22.195312 5.214844 20.074219 5.199219 Z M 20.351562 8.160156 L 20.691406 8.976562 L 21.324219 8.636719 L 21.089844 7.882812 Z M 18.269531 10.019531 L 18.96875 10.976562 L 19.402344 10.347656 L 18.789062 9.398438 Z M 19.335938 21.164062 L 18.898438 20.113281 L 17.308594 19.816406 L 17.726562 21.015625 Z M 19.335938 21.164062 "/>
<path style=" stroke:none;fill-rule:nonzero;fill:rgb(100%,100%,100%);fill-opacity:1;" d="M 10.96875 8.328125 L 12.070312 7.867188 L 11.574219 7.503906 Z M 10.96875 8.328125 "/>
<path style=" stroke:none;fill-rule:nonzero;fill:rgb(100%,100%,100%);fill-opacity:1;" d="M 15.390625 6.058594 L 15.683594 5.871094 L 14.652344 5.257812 Z M 15.390625 6.058594 "/>
<path style=" stroke:none;fill-rule:nonzero;fill:rgb(84.313725%,76.862745%,78.823529%);fill-opacity:1;" d="M 6.863281 18.089844 L 6.449219 19.648438 L 7.425781 19.964844 L 8.179688 20.050781 L 8.570312 18.390625 Z M 6.863281 18.089844 "/>
<path style=" stroke:none;fill-rule:nonzero;fill:rgb(84.313725%,76.862745%,78.823529%);fill-opacity:1;" d="M 9.164062 18.476562 C 9.054688 19.101562 8.957031 19.753906 8.871094 20.429688 L 10.132812 20.835938 Z M 9.164062 18.476562 "/>
<path style=" stroke:none;fill-rule:nonzero;fill:rgb(76.078431%,76.470588%,77.647059%);fill-opacity:1;" d="M 6.449219 19.648438 L 6.398438 19.847656 L 7.425781 19.964844 Z M 6.449219 19.648438 "/>
<path style=" stroke:none;fill-rule:nonzero;fill:rgb(76.078431%,76.470588%,77.647059%);fill-opacity:1;" d="M 10.132812 20.835938 L 8.871094 20.429688 C 8.777344 21.195312 8.703125 21.992188 8.644531 22.828125 L 10.128906 22.828125 Z M 10.132812 20.835938 "/>
<path style=" stroke:none;fill-rule:nonzero;fill:rgb(86.666667%,76.470588%,78.431373%);fill-opacity:1;" d="M 10.128906 22.832031 L 14.980469 22.832031 L 10.132812 20.835938 Z M 10.128906 22.832031 "/>
<path style=" stroke:none;fill-rule:nonzero;fill:url(#linear11);" d="M 23.679688 5.222656 L 23.394531 5.023438 L 23.394531 5.515625 L 24.082031 5.941406 Z M 24.449219 6.589844 C 23.773438 6.105469 23.019531 5.746094 22.222656 5.523438 L 22.238281 7.191406 C 23.316406 7.222656 24.363281 7.53125 25.289062 8.082031 Z M 23.316406 8.214844 L 24.097656 8.253906 L 24.105469 7.890625 L 23.292969 7.726562 Z M 23.316406 8.214844 "/>
<path style=" stroke:none;fill-rule:nonzero;fill:url(#linear12);" d="M 22.222656 5.523438 C 21.519531 5.332031 20.800781 5.226562 20.074219 5.199219 C 18.722656 5.167969 17.390625 5.507812 16.222656 6.183594 L 20.039062 7.773438 C 20.710938 7.386719 21.46875 7.1875 22.238281 7.191406 Z M 20.171875 4.777344 L 19.929688 3.976562 L 19.84375 3.96875 L 18.929688 4.511719 L 19.03125 4.75 Z M 20.671875 8.035156 L 21.210938 8.261719 L 21.089844 7.878906 Z M 20.671875 8.035156 "/>
<path style=" stroke:none;fill-rule:nonzero;fill:rgb(100%,100%,100%);fill-opacity:1;" d="M 10.21875 26.042969 L 10.21875 25.367188 C 10.183594 24.820312 9.746094 24.382812 9.199219 24.351562 L 7.046875 24.351562 L 7.046875 28.421875 L 8.148438 28.421875 L 8.148438 27.234375 L 9.035156 28.421875 L 10.355469 28.421875 L 9.320312 27.050781 C 9.816406 26.957031 10.183594 26.542969 10.21875 26.042969 Z M 9.136719 26.242188 L 8.136719 26.242188 L 8.136719 25.425781 L 9.136719 25.425781 Z M 13.40625 24.332031 L 12.40625 24.332031 C 11.839844 24.359375 11.390625 24.824219 11.382812 25.390625 L 11.382812 28.398438 L 12.464844 28.398438 L 12.464844 27.605469 L 13.4375 27.605469 L 13.4375 28.398438 L 14.535156 28.398438 L 14.535156 25.382812 C 14.507812 24.785156 14.003906 24.316406 13.40625 24.335938 Z M 13.4375 26.515625 L 12.464844 26.515625 L 12.464844 25.425781 L 13.4375 25.425781 Z M 23.5 25.800781 L 22.441406 25.800781 L 22.441406 25.355469 L 24.300781 25.355469 L 24.300781 24.351562 L 22.4375 24.351562 C 21.847656 24.339844 21.359375 24.800781 21.335938 25.390625 L 21.335938 25.820312 C 21.355469 26.414062 21.835938 26.882812 22.425781 26.886719 L 23.410156 26.886719 L 23.410156 27.382812 L 21.410156 27.382812 L 21.410156 28.40625 L 23.378906 28.40625 C 23.957031 28.433594 24.449219 28 24.503906 27.425781 L 24.503906 26.886719 C 24.519531 26.3125 24.074219 25.828125 23.5 25.800781 Z M 19.066406 24.34375 L 17.976562 24.34375 L 17.976562 28.414062 L 20.699219 28.414062 L 20.699219 27.324219 L 19.070312 27.324219 Z M 15.707031 28.414062 L 16.800781 28.414062 L 16.800781 24.34375 L 15.710938 24.34375 Z M 15.707031 28.414062 "/>
</g>
</svg>
