<?xml version="1.0" encoding="UTF-8"?>
<svg xmlns="http://www.w3.org/2000/svg" xmlns:xlink="http://www.w3.org/1999/xlink" width="32px" height="32px" viewBox="0 0 32 32" version="1.1">
<g id="surface1">
<path style=" stroke:none;fill-rule:nonzero;fill:rgb(0%,84.705882%,100%);fill-opacity:1;" d="M 18.5 15.972656 C 18.5 17.355469 17.378906 18.472656 16 18.472656 C 14.621094 18.472656 13.5 17.355469 13.5 15.972656 C 13.5 14.59375 14.621094 13.472656 16 13.472656 C 17.378906 13.472656 18.5 14.59375 18.5 15.972656 Z M 18.5 15.972656 "/>
<path style=" stroke:none;fill-rule:nonzero;fill:rgb(0%,84.705882%,100%);fill-opacity:1;" d="M 16 21.707031 C 12.996094 21.777344 9.996094 21.375 7.121094 20.507812 C 5.789062 20.085938 4.550781 19.421875 3.464844 18.546875 C 2.621094 17.945312 2.089844 17.003906 2 15.972656 C 2 14.320312 3.816406 12.699219 6.859375 11.640625 C 9.8125 10.703125 12.898438 10.246094 16 10.292969 C 19.058594 10.25 22.105469 10.695312 25.023438 11.617188 C 26.300781 12.023438 27.5 12.65625 28.558594 13.484375 C 29.386719 14.058594 29.914062 14.972656 30 15.972656 C 30 17.691406 27.96875 19.433594 24.699219 20.515625 C 21.878906 21.355469 18.945312 21.757812 16 21.707031 Z M 16 11.488281 C 13.035156 11.449219 10.082031 11.882812 7.25 12.769531 C 4.449219 13.746094 3.195312 15.085938 3.195312 15.972656 C 3.195312 16.898438 4.546875 18.359375 7.507812 19.371094 C 10.261719 20.195312 13.125 20.582031 16 20.511719 C 18.816406 20.558594 21.625 20.179688 24.324219 19.378906 C 27.398438 18.359375 28.800781 16.898438 28.800781 15.972656 C 28.699219 15.332031 28.332031 14.761719 27.789062 14.402344 C 26.839844 13.667969 25.773438 13.109375 24.628906 12.746094 C 21.839844 11.871094 18.925781 11.445312 16 11.488281 Z M 16 11.488281 "/>
<path style=" stroke:none;fill-rule:nonzero;fill:rgb(0%,84.705882%,100%);fill-opacity:1;" d="M 10.320312 28.441406 C 9.851562 28.453125 9.390625 28.339844 8.984375 28.113281 C 7.550781 27.289062 7.054688 24.90625 7.65625 21.742188 C 8.320312 18.714844 9.46875 15.8125 11.058594 13.148438 C 12.546875 10.476562 14.457031 8.0625 16.710938 5.996094 C 17.703125 5.089844 18.847656 4.367188 20.09375 3.863281 C 21.003906 3.433594 22.058594 3.433594 22.972656 3.863281 C 24.460938 4.71875 24.953125 7.347656 24.257812 10.722656 C 23.574219 13.585938 22.457031 16.328125 20.941406 18.855469 C 19.503906 21.492188 17.65625 23.886719 15.46875 25.945312 C 14.4375 26.886719 13.242188 27.628906 11.945312 28.136719 C 11.421875 28.328125 10.875 28.433594 10.320312 28.441406 Z M 12.09375 13.742188 C 10.578125 16.292969 9.476562 19.066406 8.832031 21.960938 C 8.28125 24.878906 8.8125 26.628906 9.582031 27.074219 C 10.382812 27.539062 12.324219 27.101562 14.683594 25.039062 C 16.773438 23.066406 18.539062 20.773438 19.910156 18.25 C 21.359375 15.835938 22.433594 13.214844 23.089844 10.472656 C 23.746094 7.300781 23.179688 5.355469 22.378906 4.894531 C 21.769531 4.660156 21.09375 4.691406 20.511719 4.980469 C 19.402344 5.4375 18.382812 6.089844 17.5 6.898438 C 15.347656 8.878906 13.523438 11.191406 12.101562 13.75 Z M 12.09375 13.742188 "/>
<path style=" stroke:none;fill-rule:nonzero;fill:rgb(0%,84.705882%,100%);fill-opacity:1;" d="M 21.675781 28.457031 C 20.320312 28.457031 18.601562 27.636719 16.808594 26.09375 C 14.515625 24.007812 12.574219 21.5625 11.0625 18.859375 C 9.492188 16.230469 8.355469 13.371094 7.6875 10.386719 C 7.398438 9.074219 7.347656 7.71875 7.53125 6.386719 C 7.617188 5.386719 8.140625 4.476562 8.964844 3.898438 C 10.449219 3.039062 12.972656 3.925781 15.550781 6.210938 C 17.691406 8.230469 19.507812 10.570312 20.9375 13.144531 C 22.507812 15.707031 23.660156 18.503906 24.347656 21.429688 C 24.648438 22.792969 24.695312 24.199219 24.484375 25.578125 C 24.382812 26.605469 23.839844 27.539062 22.992188 28.132812 C 22.589844 28.355469 22.136719 28.464844 21.675781 28.457031 Z M 12.097656 18.257812 C 13.546875 20.84375 15.402344 23.179688 17.589844 25.183594 C 19.839844 27.121094 21.621094 27.535156 22.390625 27.085938 C 23.1875 26.621094 23.777344 24.722656 23.171875 21.652344 C 22.503906 18.859375 21.402344 16.1875 19.898438 13.738281 C 18.535156 11.277344 16.796875 9.039062 14.753906 7.101562 C 12.332031 4.949219 10.363281 4.46875 9.5625 4.929688 C 9.058594 5.339844 8.75 5.945312 8.710938 6.59375 C 8.550781 7.78125 8.601562 8.988281 8.863281 10.15625 C 9.503906 13.011719 10.59375 15.746094 12.097656 18.257812 Z M 12.097656 18.257812 "/>
</g>
</svg>
