<?xml version="1.0" encoding="UTF-8"?>
<svg xmlns="http://www.w3.org/2000/svg" xmlns:xlink="http://www.w3.org/1999/xlink" width="32px" height="32px" viewBox="0 0 32 32" version="1.1">
<g id="surface1">
<path style=" stroke:none;fill-rule:nonzero;fill:rgb(80%,40%,60%);fill-opacity:1;" d="M 4.800781 0 L 27.199219 0 C 29.851562 0 32 2.148438 32 4.800781 L 32 27.199219 C 32 29.851562 29.851562 32 27.199219 32 L 4.800781 32 C 2.148438 32 0 29.851562 0 27.199219 L 0 4.800781 C 0 2.148438 2.148438 0 4.800781 0 Z M 4.800781 0 "/>
<path style=" stroke:none;fill-rule:nonzero;fill:rgb(100%,100%,100%);fill-opacity:1;" d="M 16.125 5.5 C 10.125 7.5625 6.25 11.75 6.625 14.25 C 7 16.75 10.75 18.75 12.4375 20.0625 C 10.25 21.1875 7.5 22.875 7.5625 25.0625 C 7.6875 28.0625 10.9375 27.125 12.3125 26.25 C 13.6875 25.375 15.0625 22.9375 14.1875 20.375 C 16.125 19.875 17.8125 20.5 18.3125 20.875 C 20.25 22.25 19.25 23.8125 18.5625 24.0625 C 17.875 24.3125 18.3125 24.4375 18.75 24.3125 C 19.1875 24.1875 20.125 23.5625 20.125 22.5 C 20.125 19.8125 17.25 18.5625 13.6875 19.5 C 11.625 17.3125 8.8125 16.3125 8.9375 13.9375 C 9 13.0625 9.3125 10.8125 14.875 8 C 20.4375 5.1875 24.375 6.3125 23.875 8.875 C 23.125 12.75 16.375 15.375 14 13.125 C 13.875 12.875 13.4375 12.6875 13.6875 13.375 C 14.9375 16.5 25.0625 15.0625 25.5 8.4375 C 25.625 4.9375 20.5625 4 16.125 5.5 Z M 10.75 25.5 C 9.1875 26 9.25 25 9.3125 24.625 C 9.5 23.5625 10.375 22.25 13 20.9375 C 13.75 23.3125 12.0625 25.125 10.75 25.5 Z M 10.75 25.5 "/>
</g>
</svg>
