<?xml version="1.0" encoding="UTF-8"?>
<svg xmlns="http://www.w3.org/2000/svg" xmlns:xlink="http://www.w3.org/1999/xlink" width="32px" height="32px" viewBox="0 0 32 32" version="1.1">
<g id="surface1">
<path style="fill:none;stroke-width:2;stroke-linecap:butt;stroke-linejoin:miter;stroke:rgb(0%,0%,0%);stroke-opacity:1;stroke-miterlimit:10;" d="M 27 25 L 5 25 C 3.894531 25 3 24.105469 3 23 L 3 9 C 3 7.894531 3.894531 7 5 7 L 27 7 C 28.105469 7 29 7.894531 29 9 L 29 23 C 29 24.105469 28.105469 25 27 25 Z M 27 25 "/>
<path style=" stroke:none;fill-rule:nonzero;fill:rgb(0%,0%,0%);fill-opacity:1;" d="M 24.296875 15.691406 C 24.34375 14.972656 24.539062 14.632812 24.90625 14.632812 C 25.273438 14.632812 25.460938 14.976562 25.484375 15.691406 Z M 27 16.121094 C 27 15.316406 26.824219 14.679688 26.480469 14.230469 C 26.128906 13.773438 25.601562 13.542969 24.933594 13.542969 C 23.5625 13.542969 22.714844 14.554688 22.714844 16.179688 C 22.714844 17.089844 22.941406 17.769531 23.386719 18.203125 C 23.789062 18.59375 24.367188 18.789062 25.113281 18.789062 C 25.804688 18.789062 26.441406 18.628906 26.84375 18.359375 L 26.667969 17.257812 C 26.269531 17.46875 25.808594 17.585938 25.289062 17.585938 C 24.976562 17.585938 24.765625 17.523438 24.609375 17.386719 C 24.4375 17.242188 24.34375 17.007812 24.308594 16.679688 L 26.976562 16.679688 C 26.988281 16.601562 27 16.238281 27 16.121094 Z M 20.558594 17.210938 C 20.429688 17.457031 20.226562 17.589844 19.992188 17.589844 C 19.832031 17.589844 19.6875 17.554688 19.558594 17.492188 L 19.558594 15.089844 C 19.832031 14.800781 20.078125 14.769531 20.167969 14.769531 C 20.578125 14.769531 20.777344 15.210938 20.777344 16.074219 C 20.777344 16.566406 20.707031 16.949219 20.558594 17.210938 Z M 21.894531 14.09375 C 21.609375 13.722656 21.214844 13.542969 20.707031 13.542969 C 20.238281 13.542969 19.832031 13.738281 19.449219 14.144531 L 19.363281 13.640625 L 17.949219 13.640625 L 17.949219 20.5625 L 19.558594 20.296875 L 19.558594 18.671875 C 19.804688 18.75 20.058594 18.789062 20.285156 18.789062 C 20.6875 18.789062 21.273438 18.683594 21.726562 18.191406 C 22.164062 17.71875 22.382812 16.984375 22.382812 16.015625 C 22.382812 15.160156 22.21875 14.511719 21.894531 14.09375 Z M 15.695312 13.640625 L 17.3125 13.640625 L 17.3125 18.691406 L 15.695312 18.691406 Z M 16.507812 13.140625 C 16.976562 13.140625 17.351562 12.757812 17.351562 12.289062 C 17.351562 11.8125 16.976562 11.4375 16.507812 11.4375 C 16.035156 11.4375 15.65625 11.8125 15.65625 12.289062 C 15.65625 12.757812 16.035156 13.140625 16.507812 13.140625 Z M 15 13.570312 C 14.546875 13.570312 14.183594 13.808594 14.039062 14.238281 L 13.941406 13.640625 L 12.535156 13.640625 L 12.535156 18.691406 L 14.144531 18.691406 L 14.144531 15.414062 C 14.347656 15.164062 14.632812 15.078125 15.023438 15.078125 C 15.105469 15.078125 15.195312 15.078125 15.308594 15.097656 L 15.308594 13.609375 C 15.195312 13.582031 15.097656 13.570312 15 13.570312 Z M 11.910156 14.835938 L 12.105469 13.640625 L 11.078125 13.640625 L 11.078125 12.1875 L 9.695312 12.414062 L 9.496094 13.640625 L 9.011719 13.71875 L 8.828125 14.835938 L 9.492188 14.835938 L 9.492188 17.179688 C 9.492188 17.789062 9.648438 18.210938 9.96875 18.46875 C 10.234375 18.683594 10.617188 18.789062 11.15625 18.789062 C 11.570312 18.789062 11.824219 18.71875 12 18.671875 L 12 17.40625 C 11.902344 17.429688 11.683594 17.476562 11.53125 17.476562 C 11.214844 17.476562 11.078125 17.3125 11.078125 16.941406 L 11.078125 14.832031 L 11.910156 14.832031 Z M 7.300781 15.542969 C 6.824219 15.367188 6.566406 15.230469 6.566406 15.015625 C 6.566406 14.835938 6.714844 14.730469 6.980469 14.730469 C 7.46875 14.730469 7.96875 14.917969 8.3125 15.085938 L 8.507812 13.886719 C 8.234375 13.757812 7.675781 13.542969 6.902344 13.542969 C 6.355469 13.542969 5.902344 13.683594 5.578125 13.949219 C 5.238281 14.230469 5.066406 14.632812 5.066406 15.121094 C 5.066406 16.003906 5.605469 16.378906 6.480469 16.699219 C 7.046875 16.898438 7.234375 17.042969 7.234375 17.261719 C 7.234375 17.476562 7.050781 17.601562 6.722656 17.601562 C 6.3125 17.601562 5.636719 17.398438 5.195312 17.140625 L 5 18.355469 C 5.378906 18.566406 6.078125 18.789062 6.804688 18.789062 C 7.382812 18.789062 7.863281 18.652344 8.1875 18.394531 C 8.550781 18.105469 8.738281 17.683594 8.738281 17.140625 C 8.742188 16.238281 8.1875 15.859375 7.300781 15.542969 Z M 7.300781 15.542969 "/>
</g>
</svg>
