<?xml version="1.0" encoding="UTF-8"?>
<svg xmlns="http://www.w3.org/2000/svg" xmlns:xlink="http://www.w3.org/1999/xlink" width="32px" height="32px" viewBox="0 0 32 32" version="1.1">
<defs>
<linearGradient id="linear0" gradientUnits="userSpaceOnUse" x1="-0.0277778" y1="0.32" x2="1" y2="0.675556" gradientTransform="matrix(32,0,0,19.199219,0,6.375)">
<stop offset="0" style="stop-color:rgb(13.333333%,59.607843%,74.117647%);stop-opacity:1;"/>
<stop offset="1" style="stop-color:rgb(5.490196%,84.313725%,70.980392%);stop-opacity:1;"/>
</linearGradient>
</defs>
<g id="surface1">
<path style=" stroke:none;fill-rule:nonzero;fill:url(#linear0);" d="M 16 6.375 C 11.734375 6.375 9.066406 8.507812 8 12.773438 C 9.601562 10.640625 11.464844 9.839844 13.601562 10.375 C 14.816406 10.679688 15.6875 11.5625 16.648438 12.539062 C 18.21875 14.132812 20.035156 15.976562 24 15.976562 C 28.265625 15.976562 30.933594 13.839844 32 9.574219 C 30.398438 11.707031 28.535156 12.507812 26.398438 11.976562 C 25.183594 11.671875 24.3125 10.789062 23.351562 9.808594 C 21.78125 8.21875 19.964844 6.375 16 6.375 Z M 8 15.976562 C 3.734375 15.976562 1.066406 18.109375 0 22.375 C 1.601562 20.242188 3.464844 19.441406 5.601562 19.976562 C 6.816406 20.277344 7.6875 21.164062 8.648438 22.140625 C 10.21875 23.730469 12.035156 25.574219 16 25.574219 C 20.265625 25.574219 22.933594 23.441406 24 19.175781 C 22.398438 21.308594 20.535156 22.109375 18.398438 21.574219 C 17.183594 21.269531 16.3125 20.386719 15.351562 19.410156 C 13.78125 17.816406 11.964844 15.976562 8 15.976562 Z M 8 15.976562 "/>
</g>
</svg>
