<?xml version="1.0" encoding="UTF-8"?>
<svg xmlns="http://www.w3.org/2000/svg" xmlns:xlink="http://www.w3.org/1999/xlink" width="32px" height="32px" viewBox="0 0 32 32" version="1.1">
<g id="surface1">
<path style=" stroke:none;fill-rule:nonzero;fill:rgb(1.960784%,65.882353%,85.490196%);fill-opacity:1;" d="M 4.800781 0 L 27.199219 0 C 29.851562 0 32 2.148438 32 4.800781 L 32 27.199219 C 32 29.851562 29.851562 32 27.199219 32 L 4.800781 32 C 2.148438 32 0 29.851562 0 27.199219 L 0 4.800781 C 0 2.148438 2.148438 0 4.800781 0 Z M 4.800781 0 "/>
<path style="fill:none;stroke-width:20;stroke-linecap:butt;stroke-linejoin:miter;stroke:rgb(100%,100%,100%);stroke-opacity:1;stroke-miterlimit:4;" d="M 438 256 C 438 356.5 356.5 438 256 438 C 155.5 438 74 356.5 74 256 C 74 155.5 155.5 74 256 74 C 356.5 74 438 155.5 438 256 Z M 438 256 " transform="matrix(0.0625,0,0,0.0625,0,0)"/>
<path style=" stroke:none;fill-rule:nonzero;fill:rgb(100%,100%,100%);fill-opacity:1;" d="M 19.6875 26.5 L 21.4375 25.5625 L 24.8125 15.8125 C 25.4375 14.25 25.625 13 25.625 11.9375 C 25.625 9.9375 24.8125 8.1875 23.375 8 C 22.0625 7.875 21.3125 9.1875 21.375 9.9375 C 21.5 11.75 23.3125 12.75 23.3125 15.25 C 23.3125 17 22.1875 19.8125 21.375 22.5625 L 17.5 10.875 L 18.75 10.8125 C 19.375 10.8125 19.3125 9.875 18.6875 9.9375 C 16.75 10.125 14.9375 10.0625 12.9375 9.9375 C 12.3125 9.875 12.3125 10.8125 12.875 10.8125 L 14 10.875 L 15.6875 15.5 L 13.3125 22.625 L 9.375 10.875 L 10.625 10.8125 C 11.1875 10.8125 11.125 9.875 10.5625 9.9375 C 8.75 10.0625 7 10.1875 6.5625 9.875 L 6.0625 11.375 L 11.3125 25.9375 L 12.875 26.8125 L 16.25 16.9375 "/>
</g>
</svg>
