<svg id="wave" style="transform:rotate(180deg); transition: 0.3s" viewBox="0 0 1440 210" version="1.1" xmlns="http://www.w3.org/2000/svg"><defs><linearGradient id="sw-gradient-0" x1="0" x2="0" y1="1" y2="0"><stop stop-color="#252535de" offset="0%"></stop><stop stop-color="#15151E" offset="100%"></stop></linearGradient></defs><path style="transform:translate(0, 0px); opacity:1" fill="url(#sw-gradient-0)" d="M0,63L20,59.5C40,56,80,49,120,42C160,35,200,28,240,42C280,56,320,91,360,91C400,91,440,56,480,45.5C520,35,560,49,600,66.5C640,84,680,105,720,98C760,91,800,56,840,66.5C880,77,920,133,960,143.5C1000,154,1040,119,1080,119C1120,119,1160,154,1200,157.5C1240,161,1280,133,1320,112C1360,91,1400,77,1440,80.5C1480,84,1520,105,1560,122.5C1600,140,1640,154,1680,140C1720,126,1760,84,1800,56C1840,28,1880,14,1920,35C1960,56,2000,112,2040,136.5C2080,161,2120,154,2160,157.5C2200,161,2240,175,2280,182C2320,189,2360,189,2400,175C2440,161,2480,133,2520,105C2560,77,2600,49,2640,56C2680,63,2720,105,2760,115.5C2800,126,2840,105,2860,94.5L2880,84L2880,210L2860,210C2840,210,2800,210,2760,210C2720,210,2680,210,2640,210C2600,210,2560,210,2520,210C2480,210,2440,210,2400,210C2360,210,2320,210,2280,210C2240,210,2200,210,2160,210C2120,210,2080,210,2040,210C2000,210,1960,210,1920,210C1880,210,1840,210,1800,210C1760,210,1720,210,1680,210C1640,210,1600,210,1560,210C1520,210,1480,210,1440,210C1400,210,1360,210,1320,210C1280,210,1240,210,1200,210C1160,210,1120,210,1080,210C1040,210,1000,210,960,210C920,210,880,210,840,210C800,210,760,210,720,210C680,210,640,210,600,210C560,210,520,210,480,210C440,210,400,210,360,210C320,210,280,210,240,210C200,210,160,210,120,210C80,210,40,210,20,210L0,210Z"></path><defs><linearGradient id="sw-gradient-1" x1="0" x2="0" y1="1" y2="0"><stop stop-color="#252535de" offset="0%"></stop><stop stop-color="#15151E" offset="100%"></stop></linearGradient></defs><path style="transform:translate(0, 50px); opacity:0.9" fill="url(#sw-gradient-1)" d="M0,105L20,94.5C40,84,80,63,120,66.5C160,70,200,98,240,112C280,126,320,126,360,119C400,112,440,98,480,84C520,70,560,56,600,63C640,70,680,98,720,94.5C760,91,800,56,840,35C880,14,920,7,960,3.5C1000,0,1040,0,1080,0C1120,0,1160,0,1200,31.5C1240,63,1280,126,1320,129.5C1360,133,1400,77,1440,73.5C1480,70,1520,119,1560,129.5C1600,140,1640,112,1680,112C1720,112,1760,140,1800,133C1840,126,1880,84,1920,56C1960,28,2000,14,2040,10.5C2080,7,2120,14,2160,31.5C2200,49,2240,77,2280,98C2320,119,2360,133,2400,147C2440,161,2480,175,2520,150.5C2560,126,2600,63,2640,49C2680,35,2720,70,2760,101.5C2800,133,2840,161,2860,175L2880,189L2880,210L2860,210C2840,210,2800,210,2760,210C2720,210,2680,210,2640,210C2600,210,2560,210,2520,210C2480,210,2440,210,2400,210C2360,210,2320,210,2280,210C2240,210,2200,210,2160,210C2120,210,2080,210,2040,210C2000,210,1960,210,1920,210C1880,210,1840,210,1800,210C1760,210,1720,210,1680,210C1640,210,1600,210,1560,210C1520,210,1480,210,1440,210C1400,210,1360,210,1320,210C1280,210,1240,210,1200,210C1160,210,1120,210,1080,210C1040,210,1000,210,960,210C920,210,880,210,840,210C800,210,760,210,720,210C680,210,640,210,600,210C560,210,520,210,480,210C440,210,400,210,360,210C320,210,280,210,240,210C200,210,160,210,120,210C80,210,40,210,20,210L0,210Z"></path></svg>