<svg id="wave" style="transform:rotate(0deg); transition: 0.3s" viewBox="0 0 1440 190" version="1.1" xmlns="http://www.w3.org/2000/svg"><defs><linearGradient id="sw-gradient-0" x1="0" x2="0" y1="1" y2="0"><stop stop-color="#EFF0F3" offset="0%"></stop><stop stop-color="#e3e6ea" offset="100%"></stop></linearGradient></defs><path style="transform:translate(0, 0px); opacity:1" fill="url(#sw-gradient-0)" d="M0,133L240,0L480,38L720,114L960,133L1200,57L1440,114L1680,152L1920,152L2160,152L2400,57L2640,152L2880,0L3120,171L3360,133L3600,0L3840,95L4080,171L4320,38L4560,95L4800,133L5040,19L5280,76L5520,38L5760,114L5760,190L5520,190L5280,190L5040,190L4800,190L4560,190L4320,190L4080,190L3840,190L3600,190L3360,190L3120,190L2880,190L2640,190L2400,190L2160,190L1920,190L1680,190L1440,190L1200,190L960,190L720,190L480,190L240,190L0,190Z"></path></svg>